<?xml version="1.0" standalone="no"?>
<!DOCTYPE svg PUBLIC "-//W3C//DTD SVG 20010904//EN"
 "http://www.w3.org/TR/2001/REC-SVG-20010904/DTD/svg10.dtd">
<svg version="1.0" xmlns="http://www.w3.org/2000/svg"
 width="2108.000000pt" height="795.000000pt" viewBox="0 0 2108.000000 795.000000"
 preserveAspectRatio="xMidYMid meet">

<g transform="translate(0.000000,795.000000) scale(0.100000,-0.100000)"
fill="#000000" stroke="none">
<path d="M18487 7720 c-8 -34 -24 -257 -38 -535 -13 -266 -7 -555 14 -633 26
-97 63 -105 89 -18 19 61 15 449 -6 696 -27 313 -52 518 -59 490z"/>
<path d="M19195 7145 c-16 -8 -51 -23 -77 -34 l-48 -20 31 -73 c38 -90 42 -95
71 -80 13 6 47 21 76 33 28 12 52 26 52 30 0 16 -62 159 -69 158 -3 0 -19 -7
-36 -14z"/>
<path d="M17741 7073 c-17 -42 -27 -81 -23 -85 17 -17 147 -67 155 -59 17 17
64 146 56 155 -8 9 -138 66 -150 66 -4 0 -21 -35 -38 -77z"/>
<path d="M20019 6918 c-492 -426 -747 -696 -724 -768 22 -69 204 85 491 415
163 188 397 475 391 481 -2 3 -74 -55 -158 -128z"/>
<path d="M16821 7013 c165 -211 613 -686 745 -792 143 -115 211 -103 125 23
-83 120 -363 376 -764 699 -106 86 -132 103 -106 70z"/>
<path d="M20081 6116 c-17 -41 -31 -79 -31 -84 0 -13 152 -74 161 -65 10 11
59 134 59 149 0 10 -31 25 -146 71 -7 2 -25 -28 -43 -71z"/>
<path d="M16810 6150 c-50 -22 -64 -33 -62 -47 3 -16 51 -131 59 -142 3 -5
144 48 156 59 14 12 -50 155 -70 157 -10 1 -47 -11 -83 -27z"/>
<path d="M16754 5755 c-85 -83 -190 -123 -371 -141 l-73 -7 0 -43 0 -44 53 0
c79 -1 133 -29 158 -84 19 -44 19 -66 17 -878 -3 -812 -3 -834 -23 -867 -26
-44 -78 -71 -137 -71 l-48 0 0 -45 0 -45 375 0 375 0 0 45 c0 45 0 45 -35 45
-63 0 -104 24 -126 74 -19 43 -20 64 -17 423 l3 378 31 65 c40 84 79 129 145
165 112 61 233 31 295 -72 49 -83 54 -129 54 -542 0 -344 -2 -379 -19 -417
-22 -48 -68 -74 -130 -74 l-41 0 0 -45 0 -45 375 0 375 0 0 44 0 44 -55 4
c-34 3 -66 13 -83 25 -56 42 -57 43 -63 498 -6 452 -8 464 -63 574 -110 216
-375 293 -612 176 -53 -26 -89 -54 -143 -110 l-71 -75 0 550 0 550 -45 0 c-42
0 -50 -5 -101 -55z"/>
<path d="M810 5580 l0 -50 65 0 c113 0 173 -44 194 -140 7 -34 11 -303 11
-819 0 -839 0 -839 -57 -893 -38 -37 -73 -48 -149 -48 l-64 0 0 -50 0 -50 480
0 480 0 0 50 0 50 -78 0 c-96 0 -137 19 -172 81 l-25 44 -3 333 -3 333 61 -60
c109 -108 245 -159 395 -148 217 16 401 149 501 362 54 116 68 184 68 330 0
105 -4 145 -22 209 -62 217 -207 387 -395 463 -123 50 -168 53 -748 53 l-539
0 0 -50z m1019 -91 c110 -58 195 -183 243 -355 29 -107 32 -355 5 -454 -38
-140 -117 -259 -200 -299 -51 -25 -147 -28 -198 -7 -59 25 -114 72 -153 130
l-37 56 3 437 c3 414 4 440 22 470 32 52 68 65 167 60 74 -4 95 -9 148 -38z"/>
<path d="M5640 5580 l0 -50 43 0 c110 0 201 -60 227 -147 8 -27 10 -273 8
-838 -3 -779 -4 -801 -23 -834 -35 -59 -66 -75 -158 -81 l-82 -5 -3 -47 -3
-48 370 0 371 0 0 50 0 50 -78 0 c-124 0 -195 48 -222 150 -6 24 -9 254 -8
624 l3 587 370 -730 370 -731 50 1 50 0 300 652 c164 359 318 693 342 742 l42
90 -2 -630 -2 -630 -25 -44 c-35 -62 -76 -81 -172 -81 l-78 0 0 -50 0 -50 480
0 480 0 0 50 0 50 -67 0 c-96 1 -143 24 -174 86 l-24 49 0 800 0 800 30 60
c37 75 72 96 166 103 l69 5 0 48 0 49 -287 0 -288 -1 -354 -764 c-194 -421
-357 -765 -361 -765 -3 0 -182 343 -396 763 l-389 762 -287 3 -288 2 0 -50z"/>
<path d="M2928 5483 l-127 -128 125 -127 c69 -71 128 -128 133 -128 5 0 63 58
129 128 l121 129 -127 126 -127 127 -127 -127z"/>
<path d="M18368 5483 l-127 -128 125 -127 c69 -71 128 -128 133 -128 5 0 63
58 129 128 l121 129 -127 126 -127 127 -127 -127z"/>
<path d="M19771 5409 c-75 -9 -142 -34 -149 -56 -19 -63 293 -79 762 -38 304
26 507 49 494 56 -15 7 -253 25 -523 39 -215 11 -482 11 -584 -1z"/>
<path d="M11581 5256 c-13 -47 -37 -115 -56 -153 -58 -121 -126 -164 -289
-185 l-96 -12 0 -38 0 -38 100 0 100 0 0 -509 c0 -467 2 -514 18 -569 38 -121
117 -196 242 -228 131 -33 277 -2 417 89 l73 47 -16 33 -16 34 -71 -24 c-125
-44 -214 -24 -262 58 -19 33 -20 55 -23 552 l-3 517 156 0 155 0 0 55 0 55
-155 0 -155 0 0 200 0 200 -48 0 -49 0 -22 -84z"/>
<path d="M4040 4943 c-82 -12 -175 -39 -242 -70 l-78 -36 0 -139 0 -138 43 0
42 0 17 58 c23 77 73 133 155 174 58 28 77 33 144 33 67 0 82 -4 124 -30 51
-32 82 -78 92 -138 20 -124 -53 -192 -348 -327 -279 -128 -386 -230 -407 -390
-34 -245 146 -430 416 -430 161 0 296 79 375 219 l31 54 16 -59 c49 -175 129
-217 384 -199 l107 7 -3 46 -3 47 -57 5 c-66 6 -97 30 -118 88 -9 27 -15 150
-19 447 -6 362 -9 416 -25 460 -59 162 -190 272 -372 310 -63 13 -212 18 -274
8z m310 -1038 c-40 -204 -203 -297 -326 -183 -58 54 -79 111 -79 218 0 152 56
227 260 350 59 36 117 77 129 91 l21 25 3 -220 c2 -137 -1 -244 -8 -281z"/>
<path d="M8900 4943 c-82 -12 -175 -39 -242 -70 l-78 -36 0 -139 0 -138 43 0
42 0 17 58 c23 77 73 133 155 174 58 28 77 33 144 33 67 0 82 -4 124 -30 51
-32 82 -78 92 -138 20 -124 -53 -192 -348 -327 -279 -128 -386 -230 -407 -390
-34 -245 146 -430 416 -430 161 0 296 79 375 219 l31 54 16 -59 c49 -175 129
-217 384 -199 l107 7 -3 46 -3 47 -57 5 c-66 6 -97 30 -118 88 -9 27 -15 150
-19 447 -6 362 -9 416 -25 460 -59 162 -190 272 -372 310 -63 13 -212 18 -274
8z m310 -1038 c-40 -204 -203 -297 -326 -183 -58 54 -79 111 -79 218 0 152 56
227 260 350 59 36 117 77 129 91 l21 25 3 -220 c2 -137 -1 -244 -8 -281z"/>
<path d="M10732 4936 c-81 -27 -157 -101 -234 -228 l-38 -62 0 147 0 147 -49
0 c-46 0 -52 -3 -106 -56 -87 -86 -193 -127 -378 -149 l-58 -7 3 -41 3 -42 63
-6 c71 -7 106 -27 137 -80 19 -32 20 -52 20 -434 0 -382 -1 -402 -20 -434 -26
-44 -78 -71 -137 -71 l-48 0 0 -45 0 -45 420 0 420 0 0 45 0 45 -46 0 c-115 0
-191 47 -213 133 -17 69 -15 574 3 658 36 167 127 264 247 264 43 0 64 -6 93
-25 44 -30 86 -109 86 -162 l0 -38 50 0 50 0 0 233 0 234 -37 12 c-60 19 -182
23 -231 7z"/>
<path d="M12689 4935 c-246 -49 -454 -243 -527 -490 -101 -344 51 -708 360
-859 207 -101 419 -101 626 0 211 103 357 319 380 566 31 313 -118 594 -383
723 -144 71 -299 91 -456 60z m245 -139 c141 -82 228 -354 213 -666 -9 -192
-51 -334 -122 -419 -38 -44 -117 -81 -175 -81 -59 0 -136 37 -179 85 -48 55
-97 165 -123 275 -19 81 -22 124 -22 290 0 168 3 206 21 272 41 147 102 231
190 264 55 21 143 12 197 -20z"/>
<path d="M14240 4935 c-213 -48 -400 -185 -493 -362 -64 -123 -82 -200 -81
-348 1 -149 21 -229 89 -352 57 -103 188 -227 295 -281 124 -61 192 -77 340
-76 164 0 296 35 405 106 l50 33 3 138 3 137 -43 0 -43 0 -12 -60 c-15 -82
-54 -145 -111 -181 -64 -41 -114 -52 -207 -47 -65 3 -91 10 -134 33 -103 56
-180 177 -223 350 -31 126 -31 354 0 468 68 247 231 372 423 323 102 -26 172
-95 185 -182 l6 -44 44 0 45 0 -3 133 -3 132 -55 27 c-118 58 -346 83 -480 53z"/>
<path d="M15560 4935 c-213 -48 -400 -185 -493 -362 -64 -123 -82 -200 -81
-348 1 -149 21 -229 89 -352 57 -103 188 -227 295 -281 124 -61 192 -77 340
-76 164 0 296 35 405 106 l50 33 3 138 3 137 -43 0 -43 0 -12 -60 c-15 -82
-54 -145 -111 -181 -64 -41 -114 -52 -207 -47 -65 3 -91 10 -134 33 -103 56
-180 177 -223 350 -31 126 -31 354 0 468 68 247 231 372 423 323 102 -26 172
-95 185 -182 l6 -44 44 0 45 0 -3 133 -3 132 -55 27 c-118 58 -346 83 -480 53z"/>
<path d="M3075 4884 c-86 -85 -192 -127 -378 -149 l-58 -7 3 -41 3 -42 63 -6
c71 -7 106 -27 137 -80 19 -32 20 -52 20 -434 0 -382 -1 -402 -20 -434 -26
-44 -78 -71 -137 -71 l-48 0 0 -45 0 -45 385 0 385 0 0 45 0 45 -42 0 c-57 0
-108 27 -133 70 -19 34 -20 52 -23 643 l-3 607 -48 0 c-46 0 -52 -3 -106 -56z"/>
<path d="M18515 4884 c-86 -85 -192 -127 -378 -149 l-58 -7 3 -41 3 -42 63 -6
c71 -7 106 -27 137 -80 19 -32 20 -52 20 -434 0 -382 -1 -402 -20 -434 -26
-44 -78 -71 -137 -71 l-48 0 0 -45 0 -45 385 0 385 0 0 45 0 45 -42 0 c-57 0
-108 27 -133 70 -19 34 -20 52 -23 643 l-3 607 -48 0 c-46 0 -52 -3 -106 -56z"/>
<path d="M20135 4788 c-87 -37 -92 -42 -77 -70 6 -13 21 -47 33 -75 12 -29 26
-53 31 -53 8 0 149 58 155 63 4 4 -57 151 -65 158 -4 4 -38 -7 -77 -23z"/>
<path d="M19287 4557 c-16 -43 90 -171 320 -383 168 -154 582 -498 591 -490 7
8 -331 393 -513 585 -96 100 -226 218 -291 263 -50 35 -99 46 -107 25z"/>
<path d="M19111 3763 c-17 -42 -28 -80 -24 -84 11 -10 134 -59 149 -59 10 0
25 31 71 146 4 10 -130 74 -155 74 -5 0 -24 -35 -41 -77z"/>
<path d="M773 3139 c-246 -41 -463 -232 -549 -484 -25 -72 -28 -94 -28 -215 0
-121 3 -143 28 -215 76 -222 237 -383 461 -462 l80 -28 4888 -3 4887 -2 33 47
c17 26 47 64 66 85 30 34 38 38 80 38 39 0 52 -5 75 -29 25 -26 28 -35 24 -85
l-3 -56 83 0 c45 0 82 4 82 9 0 14 94 153 127 188 28 29 37 33 85 33 83 0 92
-15 86 -135 l-5 -95 213 0 214 0 34 68 c19 39 54 86 80 110 38 35 52 42 87 42
32 0 47 -6 70 -29 27 -28 29 -34 29 -110 l0 -81 2500 0 c1415 0 2500 4 2500 9
0 14 94 153 127 188 28 29 37 33 85 33 83 0 92 -15 86 -135 l-5 -95 213 0
c131 0 215 4 219 10 8 13 108 13 122 -1 7 -7 177 -9 539 -7 l529 3 80 28 c224
79 385 240 461 462 25 72 28 94 28 215 0 121 -3 143 -28 215 -76 222 -237 383
-461 462 l-80 28 -9045 1 c-5061 1 -9068 -2 -9097 -7z m3669 -581 l3 -403 33
-14 c17 -8 32 -21 32 -28 0 -10 -32 -13 -145 -13 -119 0 -145 3 -145 14 0 8
14 17 30 21 17 4 35 15 40 25 14 25 13 635 0 660 -6 11 -26 22 -45 26 -51 9
-44 30 13 39 60 9 102 27 126 54 11 11 27 21 37 21 18 0 19 -20 21 -402z
m-1242 193 l0 -199 30 28 c40 38 91 53 152 48 56 -6 94 -30 123 -79 17 -29 21
-58 25 -209 3 -96 8 -180 13 -187 4 -6 21 -14 37 -18 17 -4 30 -13 30 -21 0
-11 -26 -14 -145 -14 -117 0 -145 3 -145 14 0 8 12 17 27 21 15 3 31 12 35 18
13 20 9 336 -4 360 -25 48 -66 59 -118 32 -52 -27 -60 -57 -60 -227 0 -84 4
-158 8 -164 4 -6 17 -14 30 -18 12 -4 22 -14 22 -22 0 -11 -25 -14 -140 -14
-114 0 -140 3 -140 14 0 8 14 17 30 21 17 4 35 15 40 25 14 25 13 635 0 660
-6 11 -26 22 -45 26 -53 10 -44 31 18 39 56 8 96 25 116 49 8 9 24 16 37 16
l24 0 0 -199z m4010 0 l0 -199 30 28 c40 38 91 53 152 48 56 -6 94 -30 123
-79 17 -29 21 -58 25 -209 3 -96 8 -180 13 -187 4 -6 21 -14 37 -18 17 -4 30
-13 30 -21 0 -11 -26 -14 -145 -14 -117 0 -145 3 -145 14 0 8 12 17 27 21 15
3 31 12 35 18 13 20 9 336 -4 360 -25 48 -66 59 -118 32 -52 -27 -60 -57 -60
-227 0 -84 4 -158 8 -164 4 -6 17 -14 30 -18 12 -4 22 -14 22 -22 0 -11 -25
-14 -140 -14 -114 0 -140 3 -140 14 0 8 14 17 30 21 17 4 35 15 40 25 14 25
13 635 0 660 -6 11 -26 22 -45 26 -53 10 -44 31 18 39 56 8 96 25 116 49 8 9
24 16 37 16 l24 0 0 -199z m9740 0 l0 -199 30 28 c40 38 91 53 152 48 56 -6
94 -30 123 -79 17 -29 21 -58 25 -209 3 -96 8 -180 13 -187 4 -6 21 -14 37
-18 17 -4 30 -13 30 -21 0 -11 -26 -14 -145 -14 -117 0 -145 3 -145 14 0 8 12
17 27 21 15 3 31 12 35 18 13 20 9 336 -4 360 -25 48 -66 59 -118 32 -52 -27
-60 -57 -60 -227 0 -84 4 -158 8 -164 4 -6 17 -14 30 -18 12 -4 22 -14 22 -22
0 -11 -25 -14 -140 -14 -114 0 -140 3 -140 14 0 8 14 17 30 21 17 4 35 15 40
25 14 25 13 635 0 660 -6 11 -26 22 -45 26 -53 10 -44 31 18 39 56 8 96 25
116 49 8 9 24 16 37 16 l24 0 0 -199z m-3361 138 c24 -9 35 -9 44 0 22 22 36
10 51 -44 28 -96 30 -115 13 -115 -9 0 -23 12 -31 28 -28 53 -71 84 -124 90
-41 4 -53 1 -71 -17 -28 -28 -27 -76 2 -123 29 -49 310 -397 320 -397 16 -2
57 105 57 148 0 53 -21 81 -62 81 -23 0 -29 4 -26 18 3 15 18 17 126 20 117 2
122 2 122 -18 0 -14 -7 -20 -23 -20 -42 0 -65 -27 -78 -90 -6 -33 -27 -90 -45
-127 l-34 -67 37 -38 c62 -63 123 -70 165 -19 19 22 38 28 38 11 0 -6 -12 -34
-26 -62 l-26 -50 -77 4 c-74 4 -111 17 -179 59 -15 10 -25 7 -59 -15 -80 -53
-214 -73 -311 -47 -61 17 -133 70 -166 125 -26 41 -30 58 -30 115 0 47 6 78
21 106 24 45 94 115 142 139 l30 16 -31 44 c-64 92 -43 186 52 234 49 25 126
29 179 11z m1285 0 c45 -10 62 -9 81 1 14 7 28 11 31 8 4 -5 54 -175 54 -185
0 -2 -8 -3 -18 -3 -10 0 -32 20 -49 43 -44 64 -107 92 -203 92 -86 0 -139 -22
-185 -77 -112 -132 -93 -383 40 -527 54 -59 123 -91 199 -91 86 0 139 28 176
94 17 28 30 61 30 74 0 15 6 22 20 22 18 0 20 -7 20 -77 l0 -78 -43 -27 c-213
-133 -524 -60 -635 149 -44 83 -58 168 -43 252 44 238 271 381 525 330z
m-13694 -10 c112 -24 193 -131 194 -257 1 -90 -23 -149 -83 -205 -54 -50 -92
-62 -172 -55 -36 4 -60 14 -89 37 l-40 32 0 -123 c0 -144 8 -165 68 -170 26
-2 38 -8 40 -20 3 -17 -11 -18 -177 -18 -174 0 -181 1 -181 20 0 15 7 20 29
20 37 0 58 21 66 63 3 18 5 161 3 318 -3 266 -4 288 -22 308 -11 12 -31 21
-48 21 -21 0 -28 5 -28 20 0 19 7 20 195 20 106 0 217 -5 245 -11z m7753 -22
c140 -69 156 -227 31 -307 l-45 -28 48 -22 c86 -38 142 -113 143 -190 0 -88
-85 -176 -190 -199 -28 -6 -148 -11 -265 -11 -208 0 -215 1 -215 20 0 15 7 20
29 20 37 0 58 21 66 63 3 18 5 161 3 318 -3 266 -4 288 -22 308 -11 12 -31 21
-48 21 -22 0 -28 5 -28 21 0 20 3 21 218 17 215 -3 217 -3 275 -31z m-3040
-119 l-47 -48 -48 47 -48 47 47 48 47 48 48 -47 48 -47 -47 -48z m11710 0
l-47 -48 -48 47 -48 47 47 48 47 48 48 -47 48 -47 -47 -48z m-6713 -33 l0 -75
60 0 c53 0 60 -2 60 -20 0 -18 -7 -20 -60 -20 l-60 0 0 -197 c1 -217 5 -235
57 -237 15 0 41 3 56 7 46 12 30 -22 -22 -50 -79 -41 -168 -24 -206 40 -18 28
-20 55 -23 235 l-4 202 -34 0 c-52 0 -44 26 10 34 62 10 92 37 112 101 13 40
23 55 36 55 16 0 18 -9 18 -75z m-5250 -84 c0 -17 -11 -42 -25 -59 -24 -28
-25 -33 -14 -74 7 -25 9 -60 5 -81 -8 -42 -54 -101 -98 -123 -42 -22 -119 -32
-173 -24 -36 6 -51 3 -67 -10 -48 -39 -7 -59 159 -78 152 -17 223 -65 223
-150 0 -72 -40 -125 -125 -164 -41 -19 -67 -23 -150 -23 -88 0 -106 3 -150 26
-57 29 -95 78 -95 122 0 22 10 40 38 66 l37 36 -22 22 c-16 15 -23 34 -23 59
0 31 7 45 43 78 l42 41 -31 28 c-139 121 -34 316 171 317 22 0 68 -10 102 -22
58 -20 63 -20 87 -4 14 9 26 23 26 31 0 8 9 15 20 15 15 0 20 -7 20 -29z
m7260 0 c0 -17 -11 -42 -25 -59 -24 -28 -25 -33 -14 -74 7 -25 9 -60 5 -81 -8
-42 -54 -101 -98 -123 -42 -22 -119 -32 -173 -24 -36 6 -51 3 -67 -10 -48 -39
-7 -59 159 -78 152 -17 223 -65 223 -150 0 -72 -40 -125 -125 -164 -41 -19
-67 -23 -150 -23 -88 0 -106 3 -150 26 -57 29 -95 78 -95 122 0 22 10 40 38
66 l37 36 -22 22 c-16 15 -23 34 -23 59 0 31 7 45 43 78 l42 41 -31 28 c-139
121 -34 316 171 317 22 0 68 -10 102 -22 58 -20 63 -20 87 -4 14 9 26 23 26
31 0 8 9 15 20 15 15 0 20 -7 20 -29z m6030 0 c0 -17 -11 -42 -25 -59 -24 -28
-25 -33 -14 -74 7 -25 9 -60 5 -81 -8 -42 -54 -101 -98 -123 -42 -22 -119 -32
-173 -24 -36 6 -51 3 -67 -10 -48 -39 -7 -59 159 -78 152 -17 223 -65 223
-150 0 -72 -40 -125 -125 -164 -41 -19 -67 -23 -150 -23 -88 0 -106 3 -150 26
-57 29 -95 78 -95 122 0 22 10 40 38 66 l37 36 -22 22 c-16 15 -23 34 -23 59
0 31 7 45 43 78 l42 41 -31 28 c-139 121 -34 316 171 317 22 0 68 -10 102 -22
58 -20 63 -20 87 -4 14 9 26 23 26 31 0 8 9 15 20 15 15 0 20 -7 20 -29z
m-17190 -4 c33 -11 35 -14 38 -64 3 -61 -15 -72 -36 -24 -25 56 -132 81 -172
41 -46 -46 -22 -77 109 -145 94 -49 127 -80 137 -134 24 -116 -83 -214 -214
-196 -31 4 -76 7 -98 7 l-42 -1 -16 64 c-19 77 -19 75 -2 75 7 0 26 -16 40
-35 35 -46 74 -65 133 -65 63 0 93 21 93 64 0 41 -22 62 -126 115 -92 47 -111
64 -128 116 -25 72 9 150 79 181 37 16 158 17 205 1z m428 -9 c2 -12 -5 -18
-24 -20 -51 -6 -50 -25 6 -159 29 -68 57 -135 62 -149 9 -23 16 -10 75 123 35
81 62 155 59 163 -3 8 -19 17 -36 21 -21 4 -30 11 -28 22 3 13 19 16 103 16
87 0 100 -2 103 -17 3 -13 -3 -18 -21 -18 -15 0 -35 -11 -49 -28 -13 -15 -83
-161 -157 -324 -85 -189 -146 -311 -168 -337 -40 -47 -83 -59 -147 -41 l-43
12 -7 65 c-4 36 -5 68 -2 71 3 2 19 -9 35 -27 23 -25 37 -31 69 -31 53 0 84
27 121 104 l30 64 -96 209 c-113 245 -117 252 -155 260 -19 4 -28 12 -28 25 0
17 8 18 147 16 129 -3 148 -5 151 -20z m705 2 c24 -12 27 -18 27 -67 0 -40 -4
-53 -15 -53 -8 0 -15 9 -15 20 0 12 -11 32 -25 45 -19 20 -34 25 -74 25 -42 0
-54 -5 -80 -31 -66 -66 -78 -218 -27 -324 29 -59 68 -85 124 -85 49 0 97 36
107 80 4 17 13 30 21 30 10 0 14 -14 14 -56 l0 -55 -47 -22 c-67 -31 -191 -31
-248 0 -118 63 -173 201 -134 332 18 61 88 135 152 161 59 23 170 23 220 0z
m1154 -8 c82 -42 143 -146 143 -242 0 -96 -61 -199 -144 -243 -31 -16 -58 -22
-116 -22 -64 0 -82 4 -128 29 -90 50 -134 127 -134 235 0 36 6 80 12 96 29 76
97 141 171 164 51 16 148 7 196 -17z m900 0 c82 -42 143 -146 143 -242 0 -96
-61 -199 -144 -243 -31 -16 -58 -22 -116 -22 -64 0 -82 4 -128 29 -90 50 -134
127 -134 235 0 36 6 80 12 96 29 76 97 141 171 164 51 16 148 7 196 -17z m983
-198 c0 -130 4 -233 10 -244 5 -10 23 -21 40 -25 16 -4 30 -13 30 -21 0 -11
-26 -14 -145 -14 -113 0 -145 3 -145 13 0 7 15 20 33 28 l32 14 3 165 c3 158
2 166 -19 183 -12 9 -30 17 -40 17 -10 0 -19 6 -19 14 0 8 21 18 58 25 38 7
70 21 93 41 18 16 42 29 52 30 16 0 17 -17 17 -226z m450 213 c33 -11 35 -14
38 -64 3 -61 -15 -72 -36 -24 -25 56 -132 81 -172 41 -46 -46 -22 -77 109
-145 94 -49 127 -80 137 -134 24 -116 -83 -214 -214 -196 -31 4 -76 7 -98 7
l-42 -1 -16 64 c-19 77 -19 75 -2 75 7 0 26 -16 40 -35 35 -46 74 -65 133 -65
63 0 93 21 93 64 0 41 -22 62 -126 115 -92 47 -111 64 -128 116 -25 72 9 150
79 181 37 16 158 17 205 1z m523 -7 c24 -12 27 -18 27 -67 0 -40 -4 -53 -15
-53 -8 0 -15 9 -15 20 0 12 -11 32 -25 45 -19 20 -34 25 -74 25 -42 0 -54 -5
-80 -31 -66 -66 -78 -218 -27 -324 29 -59 68 -85 124 -85 49 0 97 36 107 80 4
17 13 30 21 30 10 0 14 -14 14 -56 l0 -55 -47 -22 c-67 -31 -191 -31 -248 0
-118 63 -173 201 -134 332 18 61 88 135 152 161 59 23 170 23 220 0z m1108 8
c80 -23 151 -108 165 -197 l7 -41 -178 0 -178 0 7 -52 c16 -117 73 -188 152
-188 61 0 100 22 115 65 19 53 39 45 39 -16 l0 -50 -47 -22 c-68 -31 -191 -31
-249 0 -105 56 -155 136 -155 248 0 179 157 303 322 253z m1500 0 c80 -23 151
-108 165 -197 l7 -41 -178 0 -178 0 7 -52 c16 -117 73 -188 152 -188 61 0 100
22 115 65 19 53 39 45 39 -16 l0 -50 -47 -22 c-68 -31 -191 -31 -249 0 -105
56 -155 136 -155 248 0 179 157 303 322 253z m430 -40 c0 -46 2 -50 12 -33 7
11 26 34 44 52 25 27 39 33 71 33 70 0 72 -2 72 -96 0 -75 -2 -84 -19 -84 -13
0 -20 9 -25 30 -7 38 -45 58 -84 44 -17 -6 -35 -25 -49 -54 -20 -39 -23 -60
-23 -165 0 -137 8 -159 65 -169 21 -4 35 -13 35 -21 0 -13 -26 -15 -155 -15
-122 0 -155 3 -155 13 0 7 15 20 33 28 l32 14 3 165 c3 158 2 166 -19 183 -12
9 -30 17 -40 17 -10 0 -19 6 -19 14 0 8 21 18 58 25 38 7 70 21 93 41 53 45
69 40 70 -22z m552 38 c96 -35 116 -84 117 -281 0 -161 9 -195 51 -195 12 0
19 -7 19 -20 0 -18 -7 -20 -55 -20 -67 0 -112 21 -121 55 -3 14 -7 25 -9 25
-1 0 -20 -18 -42 -39 -135 -135 -359 33 -237 178 13 16 69 52 124 80 102 53
130 78 130 118 0 86 -158 83 -190 -3 -5 -13 -17 -24 -25 -24 -13 0 -15 10 -13
53 l3 52 50 17 c60 21 146 22 198 4z m817 -183 c0 -213 5 -236 51 -262 22 -12
31 -13 59 -1 59 24 70 58 70 207 0 140 -7 163 -51 163 -36 0 -21 29 19 35 59
10 99 25 112 41 7 7 23 14 36 14 l24 0 0 -226 c0 -127 4 -233 10 -244 5 -10
21 -21 35 -24 14 -4 25 -13 25 -21 0 -12 -14 -15 -65 -15 -75 0 -108 13 -124
47 l-11 25 -34 -30 c-92 -81 -224 -63 -272 35 -14 30 -19 70 -22 183 -5 156
-12 180 -59 180 -39 0 -28 28 15 35 65 10 109 25 122 40 7 8 23 15 36 15 l24
0 0 -197z m650 155 l0 -42 28 26 c81 76 192 79 259 6 38 -41 46 -78 52 -253
l6 -170 33 -14 c17 -8 32 -21 32 -28 0 -10 -31 -13 -140 -13 -117 0 -140 2
-140 15 0 8 11 17 25 21 14 3 30 14 35 24 16 30 12 305 -4 345 -33 79 -127 71
-171 -15 -18 -34 -22 -299 -5 -330 5 -10 21 -21 35 -24 14 -4 25 -13 25 -21 0
-13 -23 -15 -140 -15 -109 0 -140 3 -140 13 0 7 15 20 33 28 l32 14 3 165 c3
158 2 166 -19 183 -12 9 -30 17 -40 17 -10 0 -19 6 -19 14 0 8 22 18 61 25 41
9 70 21 92 41 47 43 67 40 67 -12z m3577 14 c82 -42 143 -146 143 -242 0 -96
-61 -199 -144 -243 -31 -16 -58 -22 -116 -22 -64 0 -82 4 -128 29 -90 50 -134
127 -134 235 0 36 6 80 12 96 29 76 97 141 171 164 51 16 148 7 196 -17z m496
14 c96 -35 116 -84 117 -281 0 -161 9 -195 51 -195 12 0 19 -7 19 -20 0 -18
-7 -20 -55 -20 -67 0 -112 21 -121 55 -3 14 -7 25 -9 25 -1 0 -20 -18 -42 -39
-135 -135 -359 33 -237 178 13 16 69 52 124 80 102 53 130 78 130 118 0 86
-158 83 -190 -3 -5 -13 -17 -24 -25 -24 -13 0 -15 10 -13 53 l3 52 50 17 c60
21 146 22 198 4z m610 -6 c24 -12 27 -18 27 -67 0 -40 -4 -53 -15 -53 -8 0
-15 9 -15 20 0 12 -11 32 -25 45 -19 20 -34 25 -74 25 -42 0 -54 -5 -80 -31
-66 -66 -78 -218 -27 -324 29 -59 68 -85 124 -85 49 0 97 36 107 80 4 17 13
30 21 30 10 0 14 -14 14 -56 l0 -55 -47 -22 c-67 -31 -191 -31 -248 0 -118 63
-173 201 -134 332 18 61 88 135 152 161 59 23 170 23 220 0z m997 -206 c0
-130 4 -233 10 -244 5 -10 23 -21 40 -25 16 -4 30 -13 30 -21 0 -11 -26 -14
-145 -14 -113 0 -145 3 -145 13 0 7 15 20 33 28 l32 14 3 165 c3 158 2 166
-19 183 -12 9 -30 17 -40 17 -10 0 -19 6 -19 14 0 8 21 18 58 25 38 7 70 21
93 41 18 16 42 29 52 30 16 0 17 -17 17 -226z m340 184 l0 -42 28 26 c81 76
192 79 259 6 38 -41 46 -78 52 -253 l6 -170 33 -14 c17 -8 32 -21 32 -28 0
-10 -31 -13 -140 -13 -117 0 -140 2 -140 15 0 8 11 17 25 21 14 3 30 14 35 24
16 30 12 305 -4 345 -33 79 -127 71 -171 -15 -18 -34 -22 -299 -5 -330 5 -10
21 -21 35 -24 14 -4 25 -13 25 -21 0 -13 -23 -15 -140 -15 -109 0 -140 3 -140
13 0 7 15 20 33 28 l32 14 3 165 c3 158 2 166 -19 183 -12 9 -30 17 -40 17
-10 0 -19 6 -19 14 0 8 22 18 61 25 41 9 70 21 92 41 47 43 67 40 67 -12z"/>
<path d="M13387 2528 c-109 -147 -16 -367 155 -368 43 0 127 26 148 46 12 12
10 18 -16 46 -17 18 -79 92 -138 165 -59 73 -111 135 -116 138 -5 3 -20 -9
-33 -27z"/>
<path d="M1006 2829 c-13 -19 -16 -52 -16 -187 l0 -164 29 -28 c59 -59 132
-46 173 32 18 35 23 59 23 128 0 73 -4 93 -28 142 -32 64 -63 89 -122 96 -36
4 -45 1 -59 -19z"/>
<path d="M8706 2834 c-13 -13 -16 -42 -16 -160 l0 -144 53 0 c95 0 147 55 147
157 0 59 -30 123 -69 146 -36 21 -95 22 -115 1z"/>
<path d="M8690 2343 c0 -188 4 -197 85 -201 77 -3 121 19 153 79 49 92 12 219
-74 255 -18 8 -63 14 -99 14 l-65 0 0 -147z"/>
<path d="M5321 2564 c-54 -69 -32 -236 35 -266 36 -17 76 0 96 42 34 68 14
215 -33 240 -34 19 -76 12 -98 -16z"/>
<path d="M5244 2036 c-23 -36 -13 -94 21 -123 69 -60 239 -50 275 16 29 56 -8
94 -108 110 -164 25 -169 25 -188 -3z"/>
<path d="M12581 2564 c-54 -69 -32 -236 35 -266 36 -17 76 0 96 42 34 68 14
215 -33 240 -34 19 -76 12 -98 -16z"/>
<path d="M12504 2036 c-23 -36 -13 -94 21 -123 69 -60 239 -50 275 16 29 56
-8 94 -108 110 -164 25 -169 25 -188 -3z"/>
<path d="M18611 2564 c-54 -69 -32 -236 35 -266 36 -17 76 0 96 42 34 68 14
215 -33 240 -34 19 -76 12 -98 -16z"/>
<path d="M18534 2036 c-23 -36 -13 -94 21 -123 69 -60 239 -50 275 16 29 56
-8 94 -108 110 -164 25 -169 25 -188 -3z"/>
<path d="M3837 2551 c-34 -41 -51 -119 -44 -205 8 -92 22 -138 53 -176 21 -24
34 -30 65 -30 77 0 109 62 109 211 0 146 -43 229 -119 229 -31 0 -44 -6 -64
-29z"/>
<path d="M4737 2551 c-34 -41 -51 -119 -44 -205 8 -92 22 -138 53 -176 21 -24
34 -30 65 -30 77 0 109 62 109 211 0 146 -43 229 -119 229 -31 0 -44 -6 -64
-29z"/>
<path d="M7868 2563 c-22 -26 -44 -73 -51 -110 l-6 -33 104 0 105 0 0 29 c0
39 -16 81 -42 109 -27 28 -88 30 -110 5z"/>
<path d="M9368 2563 c-22 -26 -44 -73 -51 -110 l-6 -33 104 0 105 0 0 29 c0
39 -16 81 -42 109 -27 28 -88 30 -110 5z"/>
<path d="M10386 2375 c-65 -46 -85 -75 -86 -123 0 -68 56 -122 99 -95 43 27
52 55 49 159 l-3 100 -59 -41z"/>
<path d="M15327 2551 c-34 -41 -51 -119 -44 -205 8 -92 22 -138 53 -176 21
-24 34 -30 65 -30 77 0 109 62 109 211 0 146 -43 229 -119 229 -31 0 -44 -6
-64 -29z"/>
<path d="M15926 2375 c-65 -46 -85 -75 -86 -123 0 -68 56 -122 99 -95 43 27
52 55 49 159 l-3 100 -59 -41z"/>
<path d="M11150 1888 c-90 -95 -215 -341 -296 -584 -54 -162 -82 -290 -90
-414 -7 -117 9 -158 69 -177 70 -23 123 17 227 173 70 105 67 103 86 55 41
-103 153 -91 315 34 l57 43 4 -59 c4 -60 30 -111 59 -117 8 -1 25 18 38 44 14
25 45 68 69 95 41 46 163 149 176 149 4 0 -5 -22 -18 -48 -39 -77 -96 -251
-96 -292 0 -71 41 -120 100 -120 48 0 128 65 225 183 l69 85 14 -28 c16 -33
66 -60 113 -60 49 0 114 36 185 103 l64 59 0 -54 c0 -52 12 -78 35 -78 5 0 41
42 78 93 37 51 83 110 102 132 l35 40 -6 -57 c-8 -68 1 -108 22 -108 9 0 57
40 107 88 100 96 165 148 173 139 3 -3 -11 -37 -31 -76 -86 -171 -82 -273 12
-300 44 -13 84 9 164 86 l69 66 0 -52 c0 -47 4 -57 34 -87 29 -29 40 -34 63
-28 38 9 92 62 171 169 36 50 68 92 70 95 5 6 52 -52 52 -64 0 -5 -26 -37 -59
-70 -81 -85 -104 -134 -99 -208 6 -79 35 -110 102 -110 58 0 104 28 151 92 58
79 78 134 72 199 -3 31 -8 65 -12 77 -5 17 3 25 53 52 33 18 62 32 64 32 2 0
4 -33 4 -73 -1 -86 13 -120 59 -142 81 -38 156 -7 276 116 83 84 128 150 109
157 -6 2 -50 -34 -100 -80 -106 -98 -160 -130 -210 -126 -32 3 -35 6 -38 37
-3 31 4 40 76 110 94 89 118 141 88 186 -22 33 -37 39 -82 31 -42 -8 -108 -65
-134 -116 -17 -33 -29 -41 -107 -69 -48 -18 -94 -33 -102 -34 -20 -3 -101 99
-101 126 0 29 36 87 54 87 8 0 21 -20 30 -48 21 -63 42 -92 68 -92 18 0 20 4
13 33 -4 17 -10 61 -14 97 -6 62 -7 66 -42 83 -45 22 -72 13 -122 -38 -48 -49
-67 -93 -67 -155 l0 -52 -107 -114 c-58 -63 -110 -114 -115 -114 -13 0 -10 24
23 137 16 60 30 123 31 141 0 61 -51 105 -80 69 -6 -7 -22 -50 -35 -96 -24
-82 -25 -83 -103 -151 -84 -73 -120 -97 -130 -87 -11 10 17 109 54 190 33 72
34 80 23 117 -14 46 -46 80 -76 80 -26 0 -125 -59 -176 -105 -22 -19 -40 -35
-42 -35 -1 0 -2 20 -2 44 0 24 -7 51 -14 60 -29 34 -55 19 -130 -75 -40 -50
-75 -89 -77 -87 -2 3 1 20 6 39 16 56 13 117 -8 128 -30 16 -49 -5 -68 -75
-17 -64 -21 -69 -112 -150 -93 -84 -142 -110 -192 -102 -20 2 -26 10 -28 37
-3 31 4 40 76 110 94 89 118 141 88 186 -10 14 -24 29 -32 32 -29 11 -86 -9
-125 -44 -47 -43 -73 -90 -94 -169 -17 -65 -11 -56 -131 -194 -84 -96 -136
-141 -149 -128 -3 2 25 96 62 207 l68 203 -24 19 c-55 44 -156 5 -281 -109
-84 -77 -83 -79 -25 101 25 78 47 123 87 178 102 143 175 312 185 430 5 59 3
69 -16 88 -28 28 -34 27 -76 -11 -41 -35 -100 -147 -175 -330 -48 -115 -130
-357 -144 -424 -6 -25 -22 -39 -94 -82 -177 -104 -222 -108 -222 -21 0 50 46
139 72 139 4 0 8 -9 8 -21 0 -23 17 -59 28 -59 9 0 32 103 32 143 0 63 -91 56
-152 -12 -20 -21 -43 -60 -54 -87 -11 -30 -54 -93 -112 -161 -95 -115 -144
-159 -162 -148 -15 9 -12 106 6 193 32 157 77 271 139 357 112 154 211 401
203 507 -3 38 -6 43 -30 46 -17 2 -34 -5 -48 -20z m755 -191 c-24 -73 -119
-266 -150 -302 l-26 -30 14 35 c8 19 50 118 93 219 59 136 80 177 82 157 2
-15 -4 -50 -13 -79z m-740 -12 c-41 -101 -106 -231 -129 -260 -12 -15 -11 -7
4 30 34 81 153 325 157 321 3 -2 -12 -43 -32 -91z m1180 -482 c-21 -35 -65
-70 -65 -51 1 17 30 53 55 66 28 16 28 15 10 -15z m1800 0 c-21 -35 -65 -70
-65 -51 1 17 30 53 55 66 28 16 28 15 10 -15z m-415 -290 c0 -39 -52 -125 -97
-162 -35 -29 -38 -30 -41 -12 -2 11 6 37 16 58 24 46 100 143 113 143 5 0 9
-12 9 -27z"/>
<path d="M17170 1888 c-90 -95 -215 -341 -296 -584 -54 -162 -82 -290 -90
-414 -7 -117 9 -158 69 -177 72 -24 123 16 237 188 35 52 65 97 69 101 3 4 4
-22 3 -58 -4 -62 -3 -65 31 -99 30 -30 40 -35 64 -29 35 8 91 61 151 141 25
35 47 61 49 60 1 -2 -6 -50 -17 -107 -28 -141 -29 -282 -4 -335 40 -83 109
-71 159 30 30 60 30 61 30 232 l0 172 81 3 82 3 5 -47 c7 -58 23 -84 63 -103
80 -38 155 -6 275 116 83 84 128 150 109 157 -6 2 -50 -34 -100 -80 -106 -98
-160 -130 -210 -126 -32 3 -35 6 -38 37 -3 31 4 40 76 110 94 89 118 141 88
186 -22 33 -37 39 -82 31 -67 -13 -134 -92 -165 -195 l-13 -44 -94 6 c-52 3
-96 8 -99 11 -3 2 25 49 61 103 106 160 149 270 162 416 4 55 3 81 -6 92 -20
24 -56 18 -84 -16 -66 -78 -172 -299 -218 -455 -22 -73 -28 -83 -137 -200 -62
-68 -118 -124 -123 -124 -13 0 -7 35 30 170 25 90 28 111 18 139 -14 43 -39
60 -63 45 -10 -6 -27 -41 -39 -78 -18 -57 -37 -87 -124 -192 -106 -129 -161
-181 -180 -169 -28 17 -2 197 54 370 25 77 46 118 91 180 112 154 211 401 203
507 -3 38 -6 43 -30 46 -17 2 -34 -5 -48 -20z m15 -203 c-41 -101 -106 -231
-129 -260 -12 -15 -11 -7 4 30 34 81 153 325 157 321 3 -2 -12 -43 -32 -91z
m594 -176 c-23 -83 -92 -236 -134 -295 -21 -30 -25 -33 -20 -14 27 96 160 399
171 388 2 -2 -6 -38 -17 -79z m216 -306 c-21 -35 -65 -70 -65 -51 1 17 30 53
55 66 28 16 28 15 10 -15z m-433 -378 c-11 -98 -25 -145 -43 -145 -14 0 -6 94
18 220 16 82 17 84 26 50 6 -22 5 -69 -1 -125z"/>
<path d="M10683 1828 c-11 -13 -57 -77 -104 -143 -93 -133 -203 -268 -270
-331 l-44 -42 -175 -6 c-181 -7 -240 -13 -240 -25 0 -9 84 -35 185 -56 126
-27 124 -20 20 -113 -52 -46 -128 -110 -170 -143 -76 -60 -87 -81 -47 -87 58
-9 163 54 303 180 147 131 139 128 264 128 l108 0 -7 -37 c-15 -84 -18 -223
-7 -306 14 -102 18 -117 36 -117 14 0 28 55 65 256 11 61 27 134 35 162 15 48
17 51 58 57 62 11 79 22 75 53 -3 25 -17 36 -74 59 l-22 8 34 145 c19 80 42
189 50 243 15 92 15 99 -2 118 -23 25 -46 24 -71 -3z m-122 -421 c-10 -43 -20
-79 -22 -82 -2 -2 -33 -7 -69 -11 l-65 -7 85 90 c47 50 86 89 87 89 1 -1 -6
-37 -16 -79z"/>
<path d="M13404 1435 c-19 -30 -14 -99 9 -122 12 -13 18 -8 46 33 17 26 31 57
31 69 0 48 -58 62 -86 20z"/>
<path d="M17284 1435 c-19 -30 -14 -99 9 -122 12 -13 18 -8 46 33 17 26 31 57
31 69 0 48 -58 62 -86 20z"/>
<path d="M15875 1304 c-8 -9 -25 -35 -37 -58 -47 -93 -204 -286 -232 -286 -18
0 0 73 39 162 25 56 45 110 45 119 0 25 -39 69 -61 69 -15 0 -28 -18 -54 -74
l-34 -75 -63 -19 -63 -20 -5 60 c-4 52 -9 64 -38 89 -38 34 -85 38 -138 13
-35 -17 -96 -91 -108 -132 -4 -12 -22 -29 -39 -38 -18 -9 -60 -36 -95 -60 -55
-39 -62 -41 -58 -21 27 129 4 227 -51 227 -7 0 -43 -60 -79 -132 -67 -134 -96
-178 -121 -178 -19 0 -17 14 17 131 16 57 30 111 30 120 0 26 -35 51 -66 47
-26 -3 -30 -9 -41 -58 -7 -30 -14 -97 -14 -148 -2 -114 14 -145 77 -150 49 -4
66 13 123 118 43 79 50 74 30 -20 -9 -44 -24 -67 -101 -153 -184 -207 -298
-383 -332 -514 -34 -130 52 -216 156 -156 69 40 191 238 263 428 15 39 41 127
59 196 l31 127 82 66 c45 36 84 66 87 66 3 0 3 -7 0 -15 -4 -9 -3 -41 1 -72 9
-73 45 -113 102 -113 51 1 84 29 153 132 54 79 58 83 119 104 l63 22 -8 -22
c-4 -11 -8 -44 -8 -71 -1 -43 4 -57 32 -93 44 -55 65 -54 144 6 l63 47 0 -53
c0 -46 4 -57 28 -78 55 -47 124 -28 216 60 57 54 58 53 35 -25 -6 -20 23 -52
38 -43 5 3 51 70 102 148 90 138 160 222 206 246 12 6 20 8 18 3 -35 -72 -42
-95 -43 -144 0 -70 21 -99 72 -99 32 0 46 21 23 35 -17 11 -11 60 15 111 35
68 33 117 -5 156 -25 24 -36 29 -58 24 -54 -13 -118 -63 -181 -141 -36 -44
-61 -71 -57 -60 4 11 10 43 13 71 5 45 3 53 -14 63 -35 18 -52 -6 -70 -102
l-17 -88 -74 -70 c-115 -110 -181 -130 -168 -51 9 62 63 182 106 237 53 69 53
103 -1 130 -35 18 -34 18 -54 -1z m-549 -78 c14 -11 19 -26 19 -59 0 -25 -3
-48 -6 -52 -4 -3 -32 -9 -63 -12 -53 -6 -56 -5 -66 21 -8 23 -6 33 16 62 42
55 66 64 100 40z m-16 -201 c0 -20 -75 -120 -91 -123 -11 -2 -18 7 -23 29 -7
38 -8 94 -1 101 11 10 115 4 115 -7z m-566 -317 c-77 -193 -222 -456 -265
-479 -45 -23 -37 58 16 169 58 123 266 424 282 409 2 -3 -12 -47 -33 -99z"/>
</g>
</svg>
